<?xml version="1.0" encoding="UTF-8" standalone="no"?>
<svg
   width="512"
   height="512"
   viewBox="0 0 512 512"
   version="1.1"
   id="svg4"
   xmlns="http://www.w3.org/2000/svg"
   xmlns:svg="http://www.w3.org/2000/svg">
  <defs
     id="defs4" />
  <g
     transform="matrix(1.5802469,0,0,1.5802469,0,4.4e-6)"
     style="fill:none;fill-rule:evenodd;stroke:none;stroke-width:1"
     id="g4">
    <path
       d="m 42,0 c -9e-6,5.3321764e-7 -42,42 -42,42 l 115,115 h 42 V 115 C 157,115 42.000009,-5.3321764e-7 42,0 Z"
       fill="#e93e30"
       id="path1" />
    <path
       d="m 209,167 c -1e-5,0 -42,42 -42,42 l 115,115 h 42 v -42 c 0,0 -114.99999,-115 -115,-115 z"
       transform="rotate(180,245.5,245.5)"
       fill="#52b529"
       id="path2" />
    <path
       d="m 42,167 c -9e-6,0 -42,42 -42,42 l 115,115 h 42 V 282 C 157,282 42.000009,167 42,167 Z"
       transform="matrix(1,0,0,-1,0,491)"
       fill="#f8c63d"
       id="path3" />
    <path
       d="m 209,0 c -1e-5,5.3321764e-7 -42,42 -42,42 l 115,115 h 42 V 115 C 324,115 209.00001,-5.3321764e-7 209,0 Z"
       transform="matrix(-1,0,0,1,491,0)"
       fill="#377ef0"
       id="path4" />
  </g>
</svg>
