<?xml version="1.0" encoding="UTF-8" standalone="no"?>
<svg
   id="vector"
   width="256"
   height="128"
   viewBox="0 0 256 128"
   version="1.1"
   xmlns="http://www.w3.org/2000/svg"
   xmlns:svg="http://www.w3.org/2000/svg">
  <defs
     id="defs1" />
  <path
     fill="#ffffff"
     d="M 18.2852,0 A 18.285837,17.066174 0 0 0 0,17.0664 V 110.93 a 18.285837,17.066174 0 0 0 18.2852,17.066 H 237.717 A 18.285837,17.066174 0 0 0 256.002,110.93 V 17.0664 A 18.285837,17.066174 0 0 0 237.717,0 Z m 1.83,6.82617 H 235.887 A 12.800087,11.946321 0 0 1 248.688,18.7734 V 99.8379 H 7.31445 V 18.7734 A 12.800087,11.946321 0 0 1 20.1152,6.82617 Z M 54.6621,105.846 c 3.1871,0 5.6743,0.757 7.4629,2.275 1.7981,1.518 2.6973,3.602 2.6973,6.25 0,1.739 -0.4126,3.268 -1.2402,4.588 -0.8277,1.32 -2.0135,2.332 -3.5547,3.035 -1.5412,0.696 -3.3396,1.045 -5.3945,1.045 -3.1585,0 -5.6355,-0.771 -7.4336,-2.312 -1.7886,-1.549 -2.6836,-3.668 -2.6836,-6.355 0,-2.68 0.895,-4.771 2.6836,-6.273 1.7886,-1.502 4.2758,-2.252 7.4629,-2.252 z m -29.9805,0.248 h 9.0332 c 2.4069,0 4.2569,0.462 5.5508,1.387 1.3034,0.917 1.9551,2.219 1.9551,3.902 0,1.075 -0.2949,2.035 -0.8848,2.881 -0.5898,0.846 -1.4355,1.502 -2.5391,1.969 -1.0941,0.459 -2.3975,0.688 -3.9102,0.688 h -4.9941 v 5.881 h -4.2109 z m 42.4941,0 h 4.2676 l 2.9102,10.791 0.6562,2.607 c 0.2664,-1.099 0.5241,-2.145 0.7715,-3.141 0.2569,-1.004 1.2077,-4.424 2.8535,-10.258 h 4.709 l 2.541,8.893 c 0.1998,0.664 0.536,2.166 1.0117,4.506 l 0.3574,-1.375 0.7559,-2.727 2.4258,-9.297 h 4.2676 L 89.5078,122.8 h -4.9941 l -2.7246,-9.664 c -0.333,-1.138 -0.6135,-2.327 -0.8418,-3.568 -0.2283,1.036 -0.4139,1.826 -0.5566,2.371 -0.1427,0.538 -1.1573,4.158 -3.041,10.861 h -4.9941 z m 30.6074,0 h 15.8129 v 2.703 h -11.602 v 4.197 h 10.73 v 2.705 h -10.73 v 4.398 H 114.18 V 122.8 H 97.7832 Z m 20.5899,0 h 10.047 c 2.397,0 4.247,0.431 5.551,1.293 1.303,0.854 1.955,2.083 1.955,3.688 0,1.17 -0.398,2.181 -1.197,3.035 -0.799,0.846 -1.88,1.403 -3.24,1.672 l 5.438,7.02 h -4.738 l -4.666,-6.344 h -4.938 v 6.344 h -4.211 z m 22.203,0 h 15.812 v 2.703 h -11.602 v 4.197 h 10.73 v 2.705 h -10.73 v 4.398 h 12.186 v 2.703 h -16.396 z m 20.592,0 h 7.277 c 3.387,0 6.008,0.712 7.863,2.135 1.855,1.415 2.781,3.446 2.781,6.094 0,1.723 -0.408,3.231 -1.227,4.52 -0.809,1.281 -1.959,2.26 -3.453,2.939 -1.484,0.68 -3.188,1.02 -5.109,1.02 h -8.133 z m 31.42,0 h 9.203 c 2.454,0 4.311,0.355 5.566,1.066 1.265,0.704 1.896,1.747 1.896,3.131 0,0.949 -0.318,1.752 -0.955,2.408 -0.628,0.648 -1.589,1.087 -2.883,1.316 1.627,0.158 2.864,0.584 3.711,1.279 0.856,0.688 1.283,1.602 1.283,2.74 0,1.518 -0.685,2.691 -2.055,3.521 -1.37,0.83 -3.272,1.244 -5.707,1.244 h -10.061 z m 20.746,0 h 4.41 l 4.822,7.066 4.881,-7.066 h 4.41 l -7.164,9.854 v 6.854 h -4.195 v -6.854 z m -158.6719,2.502 c -1.8837,0 -3.3397,0.509 -4.3672,1.529 -1.0275,1.012 -1.541,2.428 -1.541,4.246 0,1.834 0.5238,3.281 1.5703,4.34 1.056,1.051 2.4915,1.576 4.3086,1.576 1.8837,0 3.3356,-0.513 4.3535,-1.541 1.0275,-1.028 1.541,-2.486 1.541,-4.375 0,-1.802 -0.5136,-3.215 -1.541,-4.234 -1.0275,-1.028 -2.4691,-1.541 -4.3242,-1.541 z m 142.1349,0.095 v 4.137 h 4.824 c 1.189,0 2.049,-0.17 2.582,-0.51 0.542,-0.348 0.813,-0.865 0.813,-1.553 0,-0.751 -0.289,-1.285 -0.869,-1.602 -0.571,-0.316 -1.423,-0.473 -2.555,-0.473 z m -31.42,0.105 v 11.301 h 3.568 c 1.808,0 3.243,-0.517 4.309,-1.553 1.066,-1.036 1.598,-2.444 1.598,-4.223 0,-1.794 -0.561,-3.161 -1.684,-4.102 -1.123,-0.949 -2.725,-1.424 -4.809,-1.424 z m -136.484,0.012 v 5.42 h 4.4668 c 1.1607,0 2.0537,-0.237 2.6816,-0.711 0.6279,-0.482 0.9414,-1.175 0.9414,-2.076 0,-1.755 -1.2457,-2.633 -3.7383,-2.633 z m 93.691,0 v 4.934 h 5.508 c 1.18,0 2.075,-0.221 2.684,-0.664 0.609,-0.443 0.912,-1.063 0.912,-1.861 0,-1.605 -1.235,-2.408 -3.709,-2.408 z m 74.213,6.605 v 4.791 h 5.494 c 1.351,0 2.335,-0.202 2.953,-0.605 0.628,-0.411 0.943,-1.024 0.943,-1.838 0,-1.565 -1.351,-2.348 -4.053,-2.348 z"
     stroke-width="0.883274"
     id="path_0" />
  <path
     fill="#ffffff"
     d="M 49.0127,79.6412 36.5629,61.2274 24.1131,79.6412 H 13.1404 L 30.3028,55.3193 14.5824,33.3934 H 25.5551 L 36.563,49.7393 47.5709,33.3934 H 58.4731 L 43.4208,55.3193 59.915,79.6412 Z M 103.705,66.315 q 0,6.7944 -5.416,10.4049 -5.3808,3.5777 -15.826,3.5777 -9.5308,0 -14.9468,-3.151 -5.416,-3.151 -6.9634,-9.5515 l 10.0231,-1.5427 q 1.0199,3.6762 3.9741,5.3502 2.9542,1.6412 8.1943,1.6412 10.8672,0 10.8672,-6.1707 0,-1.9694 -1.2661,-3.2495 -1.2309,-1.2801 -3.5169,-2.1335 -2.2508,-0.8534 -8.6867,-2.0679 -5.5567,-1.2145 -7.7371,-1.9366 -2.1805,-0.7549 -3.9389,-1.7396 -1.7584,-1.0175 -2.9894,-2.4289 -1.2309,-1.4114 -1.9343,-3.3151 -0.6682,-1.9037 -0.6682,-4.3655 0,-6.2692 5.0291,-9.5843 5.0643,-3.348 14.7006,-3.348 9.2142,0 13.8214,2.6915 4.642,2.6915 5.979,8.8951 l -10.0583,1.2801 q -0.7737,-2.9869 -3.1652,-4.4968 -2.3563,-1.5099 -6.7876,-1.5099 -9.4253,0 -9.4253,5.5143 0,1.8053 0.9847,2.9541 1.0199,1.1488 2.9894,1.9694 1.9695,0.7878 7.9833,2.0022 7.1393,1.4114 10.199,2.6258 3.0949,1.1816 4.888,2.79 1.794,1.5755 2.743,3.8075 0.95,2.1991 0.95,5.0876 z M 131.634,40.8771 V 79.6412 H 121.259 V 40.8771 h -16.002 v -7.4837 h 42.414 v 7.4837 z m 49.241,38.7641 -4.396,-11.8163 h -18.886 l -4.396,11.8163 h -10.375 l 18.077,-46.2478 h 12.239 l 18.006,46.2477 z m -13.857,-39.1251 -0.211,0.7221 q -0.352,1.1816 -0.844,2.6915 -0.492,1.5099 -6.049,16.6085 h 14.243 l -4.888,-13.2934 -1.512,-4.4639 z m 62.816,39.1251 -11.5,-17.5604 H 206.166 V 79.6412 H 195.791 V 33.3934 h 24.759 q 8.863,0 13.681,3.5778 4.818,3.5449 4.818,10.208 0,4.8578 -2.954,8.4027 -2.954,3.5121 -7.983,4.6281 l 13.399,19.4313 z M 228.603,47.573 q 0,-6.6631 -9.144,-6.6631 h -13.294 v 13.6544 h 13.575 q 4.361,0 6.612,-1.8381 2.251,-1.8381 2.251,-5.1532 z"
     stroke-width="1.24255"
     id="path_1" />
</svg>
